# Blender v2.74 (sub 0) OBJ File: ''
# www.blender.org
mtllib box.mtl
o Cube
v 1.000000 -1.000000 -1.000000
v 1.000000 -1.000000 1.000000
v -1.000000 -1.000000 1.000000
v -1.000000 -1.000000 -1.000000
v 1.000000 1.000000 -0.999999
v 0.999999 1.000000 1.000001
v -1.000000 1.000000 1.000000
v -1.000000 1.000000 -1.000000
vn 0.000000 -1.000000 0.000000
vn 0.000000 1.000000 0.000000
vn 0.000000 0.000000 -1.000000
vn 1.000000 0.000000 0.000000
vn -0.000000 0.000000 1.000000
vn -1.000000 -0.000000 -0.000000
g Cube_Cube_Pink_Material
usemtl Pink_Material
s off
f 2//1 3//1 4//1
f 8//2 7//2 6//2
f 1//3 4//3 8//3
f 1//1 2//1 4//1
f 5//2 8//2 6//2
f 5//3 1//3 8//3
g Cube_Cube_Blue_Material
usemtl Blue_Material
f 5//4 6//4 2//4
f 6//5 7//5 3//5
f 3//6 7//6 8//6
f 1//4 5//4 2//4
f 2//5 6//5 3//5
f 4//6 3//6 8//6
