# Blender v2.74 (sub 0) OBJ File: ''
# www.blender.org
mtllib boxes.mtl
o Cube.000_Cube.002
v 1.963439 0.872672 0.622172
v 1.963439 0.872672 2.622172
v -0.036561 0.872672 2.622172
v -0.036560 0.872672 0.622172
v 1.963440 2.872672 0.622173
v 1.963439 2.872672 2.622173
v -0.036561 2.872672 2.622172
v -0.036561 2.872672 0.622172
vn 0.000000 1.000000 0.000000
vn 0.000000 -1.000000 0.000000
vn -1.000000 -0.000000 -0.000000
vn 1.000000 0.000000 0.000000
vn -0.000000 0.000000 1.000000
vn 0.000000 0.000000 -1.000000
g Cube.000_Cube.002_Red_Material
usemtl Red_Material
s off
f 8//1 7//1 6//1
f 5//1 8//1 6//1
g Cube.000_Cube.002_Blue_Material
usemtl Blue_Material
f 1//2 2//2 3//2
f 3//3 7//3 8//3
f 4//2 1//2 3//2
f 4//3 3//3 8//3
g Cube.000_Cube.002_Purple_Material
usemtl Purple_Material
f 5//4 6//4 2//4
f 1//4 5//4 2//4
g Cube.000_Cube.002_Green_Material
usemtl Green_Material
f 6//5 7//5 3//5
f 1//6 4//6 8//6
f 2//5 6//5 3//5
f 5//6 1//6 8//6
o Cube.001
v -2.237945 -0.572882 -4.328121
v -2.237945 -0.572882 -2.328121
v -4.237945 -0.572882 -2.328121
v -4.237945 -0.572882 -4.328121
v -2.237945 1.427118 -4.328120
v -2.237946 1.427118 -2.328120
v -4.237946 1.427118 -2.328121
v -4.237945 1.427118 -4.328121
vn -0.000000 0.000000 1.000000
vn 0.000000 0.000000 -1.000000
vn 0.000000 -1.000000 0.000000
vn 0.000000 1.000000 0.000000
vn 1.000000 0.000000 0.000000
vn -1.000000 -0.000000 -0.000000
g Cube.001_Cube.001_Green_Material
usemtl Green_Material
s off
f 14//7 15//7 11//7
f 10//7 14//7 11//7
g Cube.001_Cube.001_Blue_Material
usemtl Blue_Material
f 9//8 12//8 16//8
f 13//8 9//8 16//8
g Cube.001_Cube.001_Purple_Material
usemtl Purple_Material
f 9//9 10//9 11//9
f 16//10 15//10 14//10
f 13//11 14//11 10//11
f 15//12 16//12 12//12
f 12//9 9//9 11//9
f 13//10 16//10 14//10
f 9//11 13//11 10//11
f 11//12 15//12 12//12
